<?xml version="1.0" standalone="no"?>
<!DOCTYPE svg PUBLIC "-//W3C//DTD SVG 20010904//EN"
 "http://www.w3.org/TR/2001/REC-SVG-20010904/DTD/svg10.dtd">
<svg version="1.0" xmlns="http://www.w3.org/2000/svg"
 width="340.000000pt" height="289.000000pt" viewBox="0 0 340.000000 289.000000"
 preserveAspectRatio="xMidYMid meet">

<g transform="translate(0.000000,289.000000) scale(0.100000,-0.100000)"
fill="#000000" stroke="none">
<path d="M1520 2633 c-324 -25 -668 -137 -920 -300 -378 -245 -592 -596 -592
-968 0 -179 44 -345 131 -496 22 -38 37 -69 33 -69 -4 0 -42 20 -86 45 -43 25
-80 45 -82 45 -2 0 -4 -87 -4 -193 l0 -194 132 -63 c614 -292 1348 -408 2033
-320 409 53 832 178 1168 346 l67 34 0 196 0 196 -32 -20 c-89 -52 -130 -73
-134 -69 -2 2 11 30 31 62 82 138 135 331 135 500 0 710 -780 1287 -1720 1273
-63 -1 -135 -3 -160 -5z m362 -343 c380 -36 714 -177 934 -395 162 -160 244
-338 244 -530 0 -512 -612 -935 -1354 -935 -463 0 -877 155 -1132 423 -172
181 -231 327 -222 547 6 123 32 210 99 323 52 89 196 235 299 304 308 206 720
302 1132 263z"/>
<path d="M1045 1611 c-50 -13 -90 -38 -125 -77 -94 -108 -89 -250 13 -349 74
-72 161 -92 261 -63 58 17 141 102 156 159 46 168 -56 324 -217 335 -32 1 -71
0 -88 -5z"/>
<path d="M2230 1611 c-85 -26 -151 -93 -176 -177 -37 -127 27 -258 151 -310
83 -34 214 -5 277 62 98 105 88 285 -20 374 -60 49 -163 72 -232 51z"/>
</g>
</svg>
